<svg width="4164" height="706" viewBox="0 0 4164 706" fill="white" xmlns="http://www.w3.org/2000/svg">
<g filter="url(#filter0_d_523_137)">
<path d="M3442.79 189.73C3442.79 84.9451 3527.81 0 3632.68 0H4162.39C4162.39 104.785 4077.38 189.73 3972.5 189.73H3442.79Z" fill="white"/>
<path d="M3442.79 469.998H4162.39C4162.39 574.783 4077.38 659.728 3972.5 659.728H3632.68C3527.81 659.728 3442.79 574.783 3442.79 469.998Z" fill="white"/>
<path d="M3632.68 659.728C3527.81 659.728 3442.79 574.783 3442.79 469.998V189.73C3442.79 84.9451 3527.81 0 3632.68 0V659.728Z" fill="white"/>
<path d="M2582.59 189.73C2582.59 84.9451 2667.61 0 2772.49 0H3302.2C3302.2 104.785 3217.18 189.73 3112.3 189.73H2582.59Z" fill="white"/>
<path d="M2582.59 234.999H2901.42C2953.86 234.999 2996.36 277.472 2996.36 329.864C2996.36 382.257 2953.86 424.729 2901.42 424.729H2582.59V234.999Z" fill="white"/>
<path d="M2582.59 469.998H3302.2C3302.2 574.783 3217.18 659.728 3112.3 659.728H2772.49C2667.61 659.728 2582.59 574.783 2582.59 469.998Z" fill="white"/>
<path d="M1722.39 189.73C1722.39 84.9451 1807.41 0 1912.29 0H2442C2442 104.785 2356.98 189.73 2252.1 189.73H1722.39Z" fill="white"/>
<path d="M2177.48 234.999V687.688C2072.6 687.688 1987.58 602.743 1987.58 497.958V234.999H2177.48Z" fill="white"/>
<path d="M862.197 189.73C862.197 84.9451 947.216 0 1052.09 0H1581.8C1581.8 104.785 1496.78 189.73 1391.91 189.73H862.197Z" fill="white"/>
<path d="M862.197 234.999H1181.02C1233.46 234.999 1275.97 277.472 1275.97 329.864C1275.97 382.257 1233.46 424.729 1181.02 424.729H862.197V234.999Z" fill="white"/>
<path d="M862.197 469.998H1581.8C1581.8 574.783 1496.78 659.728 1391.91 659.728H1052.09C947.216 659.728 862.197 574.783 862.197 469.998Z" fill="white"/>
<path d="M2.00001 189.73C2.00001 84.9451 87.0195 0 191.896 0H721.607C721.607 104.785 636.588 189.73 531.711 189.73H2.00001Z" fill="white"/>
<path d="M191.896 703C87.0195 703 2.00001 618.055 2 513.27L2 469.998H191.896L191.896 703Z" fill="white"/>
<path d="M2.00001 424.729C2.00001 319.944 87.0195 234.999 191.896 234.999H721.607C721.607 339.784 636.588 424.729 531.711 424.729H2.00001Z" fill="white"/>
</g>
<defs>
<filter id="filter0_d_523_137" x="0.577643" y="0" width="4163.24" height="705.845" filterUnits="userSpaceOnUse" color-interpolation-filters="sRGB">
<feFlood flood-opacity="0" result="BackgroundImageFix"/>
<feColorMatrix in="SourceAlpha" type="matrix" values="0 0 0 0 0 0 0 0 0 0 0 0 0 0 0 0 0 0 127 0" result="hardAlpha"/>
<feOffset dy="1.42236"/>
<feGaussianBlur stdDeviation="0.711179"/>
<feComposite in2="hardAlpha" operator="out"/>
<feColorMatrix type="matrix" values="0 0 0 0 0 0 0 0 0 0 0 0 0 0 0 0 0 0 0.25 0"/>
<feBlend mode="normal" in2="BackgroundImageFix" result="effect1_dropShadow_523_137"/>
<feBlend mode="normal" in="SourceGraphic" in2="effect1_dropShadow_523_137" result="shape"/>
</filter>
</defs>
</svg>
