<svg width="1104" height="1526" viewBox="0 0 1104 1526" fill="none" xmlns="http://www.w3.org/2000/svg">
<path d="M0 201.531C0 134.308 54.4953 79.8125 121.719 79.8125H319.173V1525.54H121.719C54.4952 1525.54 0 1471.05 0 1403.82V201.531Z" fill="#00FF73"/>
<path d="M392.207 121.719C392.207 54.4952 446.702 0 513.926 0H711.38V1445.73H513.926C446.702 1445.73 392.207 1391.23 392.207 1324.01V121.719Z" fill="#00FF73"/>
<path d="M784.414 201.531C784.414 134.308 838.909 79.8125 906.133 79.8125H1103.59V1525.54H906.133C838.909 1525.54 784.414 1471.05 784.414 1403.82V201.531Z" fill="#00FF73"/>
<mask id="path-4-outside-1_523_167" maskUnits="userSpaceOnUse" x="32.2109" y="392.341" width="1054" height="789" fill="black">
<rect fill="white" x="32.2109" y="392.341" width="1054" height="789"/>
<path d="M490.12 1113.34H100.079V1023.4C100.079 977.963 106.075 940.095 118.066 909.8C130.058 878.875 146.152 853.629 166.348 834.064C186.544 813.868 208.634 797.774 232.617 785.782L296.993 753.594C321.607 740.972 341.488 727.718 356.635 713.833C372.413 699.317 380.302 680.699 380.302 657.978V640.937C380.302 617.585 372.098 599.282 355.688 586.028C339.91 572.143 314.349 565.201 279.005 565.201C257.547 565.201 235.773 568.357 213.683 574.668C192.225 580.979 166.032 589.815 135.107 601.176L100.079 503.665C135.422 487.887 167.61 476.842 196.642 470.531C226.306 463.588 255.022 460.117 282.792 460.117C333.914 460.117 374.622 468.322 404.917 484.731C435.842 501.141 457.932 523.231 471.186 551.001C485.071 578.139 492.013 608.118 492.013 640.937V657.978C492.013 692.059 485.071 721.091 471.186 745.074C457.932 769.057 440.26 789.254 418.17 805.663C396.081 822.073 372.098 836.589 346.221 849.211L281.846 881.399C258.494 892.76 241.137 908.538 229.777 928.734C219.048 948.93 213.052 974.807 211.79 1006.36H490.12V1113.34ZM1018.27 967.549H951.052V1113.34H841.235V967.549H564.798V875.719C593.199 831.54 621.285 786.729 649.054 741.287C677.456 695.215 703.963 649.457 728.577 604.016C753.192 557.943 773.388 513.133 789.166 469.584H913.184C889.832 533.96 858.275 600.229 818.514 668.391C778.753 735.923 737.729 801.876 695.443 866.252H841.235V768.742H951.052V866.252H1018.27V967.549Z"/>
</mask>
<path d="M490.12 1113.34H100.079V1023.4C100.079 977.963 106.075 940.095 118.066 909.8C130.058 878.875 146.152 853.629 166.348 834.064C186.544 813.868 208.634 797.774 232.617 785.782L296.993 753.594C321.607 740.972 341.488 727.718 356.635 713.833C372.413 699.317 380.302 680.699 380.302 657.978V640.937C380.302 617.585 372.098 599.282 355.688 586.028C339.91 572.143 314.349 565.201 279.005 565.201C257.547 565.201 235.773 568.357 213.683 574.668C192.225 580.979 166.032 589.815 135.107 601.176L100.079 503.665C135.422 487.887 167.61 476.842 196.642 470.531C226.306 463.588 255.022 460.117 282.792 460.117C333.914 460.117 374.622 468.322 404.917 484.731C435.842 501.141 457.932 523.231 471.186 551.001C485.071 578.139 492.013 608.118 492.013 640.937V657.978C492.013 692.059 485.071 721.091 471.186 745.074C457.932 769.057 440.26 789.254 418.17 805.663C396.081 822.073 372.098 836.589 346.221 849.211L281.846 881.399C258.494 892.76 241.137 908.538 229.777 928.734C219.048 948.93 213.052 974.807 211.79 1006.36H490.12V1113.34ZM1018.27 967.549H951.052V1113.34H841.235V967.549H564.798V875.719C593.199 831.54 621.285 786.729 649.054 741.287C677.456 695.215 703.963 649.457 728.577 604.016C753.192 557.943 773.388 513.133 789.166 469.584H913.184C889.832 533.96 858.275 600.229 818.514 668.391C778.753 735.923 737.729 801.876 695.443 866.252H841.235V768.742H951.052V866.252H1018.27V967.549Z" fill="white"/>
<path d="M490.12 1113.34V1180.96C527.466 1180.96 557.741 1150.69 557.741 1113.34H490.12ZM100.079 1113.34H32.4575C32.4575 1150.69 62.7327 1180.96 100.079 1180.96L100.079 1113.34ZM118.066 909.8L180.941 934.688C180.999 934.541 181.057 934.394 181.114 934.247L118.066 909.8ZM166.348 834.064L213.399 882.633C213.656 882.384 213.911 882.133 214.164 881.88L166.348 834.064ZM232.617 785.782L262.858 846.265L262.858 846.265L232.617 785.782ZM296.993 753.594L327.234 814.077C327.44 813.974 327.645 813.87 327.85 813.765L296.993 753.594ZM356.635 713.833L402.328 763.681C402.358 763.653 402.388 763.625 402.418 763.598L356.635 713.833ZM355.688 586.028L311.016 636.793C311.73 637.422 312.458 638.036 313.199 638.634L355.688 586.028ZM213.683 574.668L195.106 509.648C194.938 509.696 194.77 509.745 194.603 509.794L213.683 574.668ZM135.107 601.176L71.467 624.037C77.5585 640.994 90.1659 654.819 106.491 662.444C122.817 670.069 141.511 670.863 158.424 664.65L135.107 601.176ZM100.079 503.665L72.513 441.918C40.2058 456.341 24.4779 493.229 36.439 526.526L100.079 503.665ZM196.642 470.531L211.007 536.609C211.356 536.533 211.705 536.455 212.052 536.373L196.642 470.531ZM404.917 484.731L372.71 544.19C372.88 544.283 373.05 544.374 373.221 544.465L404.917 484.731ZM471.186 551.001L410.159 580.127C410.427 580.689 410.702 581.246 410.986 581.8L471.186 551.001ZM471.186 745.074L412.664 711.193C412.439 711.582 412.218 711.973 412.001 712.367L471.186 745.074ZM346.221 849.211L316.574 788.435C316.376 788.532 316.178 788.63 315.98 788.729L346.221 849.211ZM281.846 881.399L311.428 942.207C311.648 942.1 311.868 941.991 312.087 941.882L281.846 881.399ZM229.777 928.734L170.84 895.582C170.574 896.055 170.314 896.53 170.059 897.009L229.777 928.734ZM211.79 1006.36L144.222 1003.66C143.487 1022.05 150.278 1039.94 163.028 1053.21C175.778 1066.48 193.386 1073.99 211.79 1073.99L211.79 1006.36ZM490.12 1006.36H557.741C557.741 969.017 527.466 938.742 490.12 938.742V1006.36ZM490.12 1045.72H100.079V1180.96H490.12V1045.72ZM167.7 1113.34V1023.4H32.4575V1113.34H167.7ZM167.7 1023.4C167.7 983.362 173.06 954.599 180.941 934.688L55.1914 884.912C39.0897 925.59 32.4575 972.563 32.4575 1023.4H167.7ZM181.114 934.247C190.204 910.805 201.36 894.295 213.399 882.633L119.297 785.496C90.943 812.964 69.912 846.944 55.0186 885.353L181.114 934.247ZM214.164 881.88C229.557 866.487 245.788 854.8 262.858 846.265L202.376 725.3C171.48 740.748 143.532 761.249 118.532 786.248L214.164 881.88ZM262.858 846.265L327.234 814.077L266.751 693.112L202.376 725.3L262.858 846.265ZM327.85 813.765C356.12 799.268 381.484 782.788 402.328 763.681L310.941 663.986C301.491 672.648 287.094 682.676 266.136 693.424L327.85 813.765ZM402.418 763.598C433.024 735.441 447.924 698.339 447.924 657.978H312.681C312.681 659.739 312.529 660.9 312.4 661.573C312.275 662.228 312.153 662.529 312.123 662.6C312.096 662.664 312.064 662.732 311.964 662.873C311.856 663.023 311.544 663.431 310.851 664.068L402.418 763.598ZM447.924 657.978V640.937H312.681V657.978H447.924ZM447.924 640.937C447.924 599.64 432.32 561 398.177 533.423L313.199 638.634C313.499 638.876 313.405 638.848 313.137 638.505C312.861 638.151 312.612 637.733 312.444 637.357C312.282 636.996 312.324 636.964 312.417 637.438C312.516 637.937 312.681 639.055 312.681 640.937H447.924ZM400.361 535.264C366.206 505.207 320.427 497.58 279.005 497.58V632.822C292.553 632.822 301.513 634.186 306.96 635.665C312.293 637.114 312.634 638.217 311.016 636.793L400.361 535.264ZM279.005 497.58C250.836 497.58 222.812 501.732 195.106 509.648L232.26 639.688C248.734 634.981 264.257 632.822 279.005 632.822V497.58ZM194.603 509.794C171.223 516.671 143.526 526.043 111.79 537.701L158.424 664.65C188.539 653.587 213.226 645.288 232.764 639.542L194.603 509.794ZM198.747 578.315L163.719 480.805L36.439 526.526L71.467 624.037L198.747 578.315ZM127.645 565.413C159.946 550.993 187.636 541.69 211.007 536.609L182.278 404.453C147.585 411.995 110.899 424.781 72.513 441.918L127.645 565.413ZM212.052 536.373C237.147 530.5 260.684 527.739 282.792 527.739V392.496C249.361 392.496 215.464 396.677 181.233 404.689L212.052 536.373ZM282.792 527.739C327.699 527.739 355.945 535.11 372.71 544.19L437.124 425.272C393.299 401.534 340.129 392.496 282.792 392.496V527.739ZM373.221 544.465C393.183 555.057 403.99 567.203 410.159 580.127L532.213 521.874C511.873 479.258 478.502 447.225 436.612 424.998L373.221 544.465ZM410.986 581.8C419.624 598.685 424.392 617.988 424.392 640.937H559.635C559.635 598.248 550.517 557.594 531.386 520.201L410.986 581.8ZM424.392 640.937V657.978H559.635V640.937H424.392ZM424.392 657.978C424.392 682.878 419.36 699.627 412.664 711.193L529.707 778.955C550.781 742.555 559.635 701.24 559.635 657.978H424.392ZM412.001 712.367C403.441 727.856 392.214 740.707 377.846 751.38L458.495 859.946C488.307 837.8 512.423 810.258 530.371 777.782L412.001 712.367ZM377.846 751.38C359.258 765.188 338.872 777.559 316.574 788.435L375.868 909.987C405.324 895.619 432.903 878.957 458.495 859.946L377.846 751.38ZM315.98 788.729L251.604 820.917L312.087 941.882L376.462 909.694L315.98 788.729ZM252.263 820.592C218.094 837.214 189.744 861.974 170.84 895.582L288.714 961.886C292.531 955.102 298.893 948.305 311.428 942.207L252.263 820.592ZM170.059 897.009C153.114 928.907 145.745 965.602 144.222 1003.66L279.357 1009.07C280.359 984.012 284.982 968.954 289.495 960.459L170.059 897.009ZM211.79 1073.99H490.12V938.742H211.79V1073.99ZM422.498 1006.36V1113.34H557.741V1006.36H422.498ZM1018.27 967.549V1035.17C1055.61 1035.17 1085.89 1004.9 1085.89 967.549H1018.27ZM951.052 967.549V899.927C913.706 899.927 883.431 930.203 883.431 967.549H951.052ZM951.052 1113.34V1180.96C988.398 1180.96 1018.67 1150.69 1018.67 1113.34H951.052ZM841.235 1113.34H773.613C773.613 1150.69 803.888 1180.96 841.235 1180.96V1113.34ZM841.235 967.549H908.856C908.856 930.203 878.581 899.927 841.235 899.927V967.549ZM564.798 967.549H497.177C497.177 1004.9 527.452 1035.17 564.798 1035.17V967.549ZM564.798 875.719L507.916 839.152C500.905 850.059 497.177 862.752 497.177 875.719H564.798ZM649.054 741.287L591.491 705.803C591.445 705.877 591.4 705.952 591.354 706.026L649.054 741.287ZM728.577 604.016L788.036 636.223C788.098 636.109 788.16 635.994 788.221 635.88L728.577 604.016ZM789.166 469.584V401.963C760.702 401.963 735.285 419.787 725.589 446.549L789.166 469.584ZM913.184 469.584L976.752 492.643C984.271 471.915 981.212 448.823 968.555 430.768C955.898 412.713 935.234 401.963 913.184 401.963V469.584ZM818.514 668.391L876.785 702.701C876.832 702.622 876.878 702.543 876.924 702.464L818.514 668.391ZM695.443 866.252L638.924 829.127C625.278 849.902 624.129 876.488 635.932 898.363C647.735 920.237 670.587 933.873 695.443 933.873V866.252ZM841.235 866.252V933.873C878.581 933.873 908.856 903.598 908.856 866.252H841.235ZM841.235 768.742V701.12C803.888 701.12 773.613 731.395 773.613 768.742H841.235ZM951.052 768.742H1018.67C1018.67 731.395 988.398 701.12 951.052 701.12V768.742ZM951.052 866.252H883.431C883.431 903.598 913.706 933.873 951.052 933.873V866.252ZM1018.27 866.252H1085.89C1085.89 828.906 1055.61 798.63 1018.27 798.63V866.252ZM1018.27 899.927H951.052V1035.17H1018.27V899.927ZM883.431 967.549V1113.34H1018.67V967.549H883.431ZM951.052 1045.72H841.235V1180.96H951.052V1045.72ZM908.856 1113.34V967.549H773.613V1113.34H908.856ZM841.235 899.927H564.798V1035.17H841.235V899.927ZM632.42 967.549V875.719H497.177V967.549H632.42ZM621.68 912.286C650.362 867.668 678.721 822.422 706.755 776.549L591.354 706.026C563.849 751.036 536.036 795.411 507.916 839.152L621.68 912.286ZM706.618 776.772C735.65 729.675 762.794 682.825 788.036 636.223L669.118 571.809C645.133 616.09 619.261 660.755 591.491 705.803L706.618 776.772ZM788.221 635.88C814.166 587.315 835.738 539.555 852.743 492.619L725.589 446.549C711.038 486.71 692.217 528.571 668.934 572.151L788.221 635.88ZM789.166 537.206H913.184V401.963H789.166V537.206ZM849.616 446.525C827.839 506.558 798.12 569.148 760.104 634.319L876.924 702.464C918.43 631.31 951.825 561.362 976.752 492.643L849.616 446.525ZM760.243 634.082C721.032 700.677 680.592 765.691 638.924 829.127L751.962 903.377C794.865 838.061 836.473 771.168 876.785 702.701L760.243 634.082ZM695.443 933.873H841.235V798.63H695.443V933.873ZM908.856 866.252V768.742H773.613V866.252H908.856ZM841.235 836.363H951.052V701.12H841.235V836.363ZM883.431 768.742V866.252H1018.67V768.742H883.431ZM951.052 933.873H1018.27V798.63H951.052V933.873ZM950.646 866.252V967.549H1085.89V866.252H950.646Z" fill="#1E1E1E" mask="url(#path-4-outside-1_523_167)"/>
</svg>
