<?xml version="1.0" encoding="UTF-8" standalone="no"?>
<!DOCTYPE svg PUBLIC "-//W3C//DTD SVG 1.1//EN" "http://www.w3.org/Graphics/SVG/1.1/DTD/svg11.dtd">
<svg width="100%" height="100%" viewBox="0 0 4164 706" version="1.1" xmlns="http://www.w3.org/2000/svg" xmlns:xlink="http://www.w3.org/1999/xlink" xml:space="preserve" xmlns:serif="http://www.serif.com/" style="fill-rule:evenodd;clip-rule:evenodd;stroke-linejoin:round;stroke-miterlimit:2;">
    <g>
        <path d="M3442.79,189.73C3442.79,84.945 3527.81,0 3632.68,0L4162.39,0C4162.39,104.785 4077.38,189.73 3972.5,189.73L3442.79,189.73Z" style="fill:rgb(58,46,43);fill-rule:nonzero;"/>
        <path d="M3442.79,469.998L4162.39,469.998C4162.39,574.783 4077.38,659.728 3972.5,659.728L3632.68,659.728C3527.81,659.728 3442.79,574.783 3442.79,469.998Z" style="fill:rgb(58,46,43);fill-rule:nonzero;"/>
        <path d="M3632.68,659.728C3527.81,659.728 3442.79,574.783 3442.79,469.998L3442.79,189.73C3442.79,84.945 3527.81,0 3632.68,0L3632.68,659.728Z" style="fill:rgb(58,46,43);fill-rule:nonzero;"/>
        <path d="M2582.59,189.73C2582.59,84.945 2667.61,0 2772.49,0L3302.2,0C3302.2,104.785 3217.18,189.73 3112.3,189.73L2582.59,189.73Z" style="fill:rgb(58,46,43);fill-rule:nonzero;"/>
        <path d="M2582.59,234.999L2901.42,234.999C2953.86,234.999 2996.36,277.472 2996.36,329.864C2996.36,382.257 2953.86,424.729 2901.42,424.729L2582.59,424.729L2582.59,234.999Z" style="fill:rgb(58,46,43);fill-rule:nonzero;"/>
        <path d="M2582.59,469.998L3302.2,469.998C3302.2,574.783 3217.18,659.728 3112.3,659.728L2772.49,659.728C2667.61,659.728 2582.59,574.783 2582.59,469.998Z" style="fill:rgb(58,46,43);fill-rule:nonzero;"/>
        <path d="M1722.39,189.73C1722.39,84.945 1807.41,0 1912.29,0L2442,0C2442,104.785 2356.98,189.73 2252.1,189.73L1722.39,189.73Z" style="fill:rgb(58,46,43);fill-rule:nonzero;"/>
        <path d="M2177.48,234.999L2177.48,687.688C2072.6,687.688 1987.58,602.743 1987.58,497.958L1987.58,234.999L2177.48,234.999Z" style="fill:rgb(58,46,43);fill-rule:nonzero;"/>
        <path d="M862.197,189.73C862.197,84.945 947.216,0 1052.09,0L1581.8,0C1581.8,104.785 1496.78,189.73 1391.91,189.73L862.197,189.73Z" style="fill:rgb(58,46,43);fill-rule:nonzero;"/>
        <path d="M862.197,234.999L1181.02,234.999C1233.46,234.999 1275.97,277.472 1275.97,329.864C1275.97,382.257 1233.46,424.729 1181.02,424.729L862.197,424.729L862.197,234.999Z" style="fill:rgb(58,46,43);fill-rule:nonzero;"/>
        <path d="M862.197,469.998L1581.8,469.998C1581.8,574.783 1496.78,659.728 1391.91,659.728L1052.09,659.728C947.216,659.728 862.197,574.783 862.197,469.998Z" style="fill:rgb(58,46,43);fill-rule:nonzero;"/>
        <path d="M2,189.73C2,84.945 87.019,0 191.896,0L721.607,0C721.607,104.785 636.588,189.73 531.711,189.73L2,189.73Z" style="fill:rgb(58,46,43);fill-rule:nonzero;"/>
        <path d="M191.896,703C87.019,703 2,618.055 2,513.27L2,469.998L191.896,469.998L191.896,703Z" style="fill:rgb(58,46,43);fill-rule:nonzero;"/>
        <path d="M2,424.729C2,319.944 87.019,234.999 191.896,234.999L721.607,234.999C721.607,339.784 636.588,424.729 531.711,424.729L2,424.729Z" style="fill:rgb(58,46,43);fill-rule:nonzero;"/>
    </g>
</svg>
