<?xml version="1.0" encoding="UTF-8" standalone="no"?>
<!DOCTYPE svg PUBLIC "-//W3C//DTD SVG 1.1//EN" "http://www.w3.org/Graphics/SVG/1.1/DTD/svg11.dtd">
<svg width="100%" height="100%" viewBox="0 0 656 691" version="1.1" xmlns="http://www.w3.org/2000/svg" xmlns:xlink="http://www.w3.org/1999/xlink" xml:space="preserve" xmlns:serif="http://www.serif.com/" style="fill-rule:evenodd;clip-rule:evenodd;stroke-linejoin:round;stroke-miterlimit:2;">
    <g transform="matrix(1,0,0,1,-3428.765987,-1659.789296)">
        <g transform="matrix(1,0,0,1,1332.015779,704.154896)">
            <path d="M2752.297,1164.642L2752.297,1485.442C2752.297,1573.969 2680.424,1645.841 2591.897,1645.841L2257.15,1645.841C2168.623,1645.841 2096.75,1573.969 2096.75,1485.442L2096.75,1164.642C2096.75,1076.115 2168.623,1004.242 2257.15,1004.242L2591.897,1004.242C2680.424,1004.242 2752.297,1076.115 2752.297,1164.642Z" style="fill:rgb(58,46,43);"/>
        </g>
        <g transform="matrix(1,0,0,1,1332.015779,655.547033)">
            <path d="M2752.297,1164.642L2752.297,1485.442C2752.297,1573.969 2680.424,1645.841 2591.897,1645.841L2257.15,1645.841C2168.623,1645.841 2096.75,1573.969 2096.75,1485.442L2096.75,1164.642C2096.75,1076.115 2168.623,1004.242 2257.15,1004.242L2591.897,1004.242C2680.424,1004.242 2752.297,1076.115 2752.297,1164.642Z" style="fill:rgb(240,80,80);"/>
        </g>
        <g transform="matrix(1,0,0,1,1332.015779,679.547033)">
            <g transform="matrix(0.623189,0,0,0.623189,2199.051931,1105.991105)">
                <path d="M2,189.73C2,84.945 87.019,0 191.896,0L721.607,0C721.607,104.785 636.588,189.73 531.711,189.73L2,189.73Z" style="fill:rgb(58,46,43);fill-rule:nonzero;"/>
            </g>
            <g transform="matrix(0.623189,0,0,0.623189,2199.051931,1105.991105)">
                <path d="M2,424.729C2,319.944 87.019,234.999 191.896,234.999L721.607,234.999C721.607,339.784 636.588,424.729 531.711,424.729L2,424.729Z" style="fill:rgb(58,46,43);fill-rule:nonzero;"/>
            </g>
            <g transform="matrix(0.623189,0,0,0.623189,2199.051931,1105.991105)">
                <path d="M191.896,703C87.019,703 2,618.055 2,513.27L2,469.998L191.896,469.998L191.896,703Z" style="fill:rgb(58,46,43);fill-rule:nonzero;"/>
            </g>
        </g>
        <g transform="matrix(1,0,0,1,1332.015779,655.547033)">
            <g transform="matrix(0.623189,0,0,0.623189,2199.051931,1105.991105)">
                <path d="M2,189.73C2,84.945 87.019,0 191.896,0L721.607,0C721.607,104.785 636.588,189.73 531.711,189.73L2,189.73Z" style="fill:white;fill-rule:nonzero;"/>
            </g>
            <g transform="matrix(0.623189,0,0,0.623189,2199.051931,1105.991105)">
                <path d="M2,424.729C2,319.944 87.019,234.999 191.896,234.999L721.607,234.999C721.607,339.784 636.588,424.729 531.711,424.729L2,424.729Z" style="fill:white;fill-rule:nonzero;"/>
            </g>
            <g transform="matrix(0.623189,0,0,0.623189,2199.051931,1105.991105)">
                <path d="M191.896,703C87.019,703 2,618.055 2,513.27L2,469.998L191.896,469.998L191.896,703Z" style="fill:white;fill-rule:nonzero;"/>
            </g>
        </g>
    </g>
</svg>
