<?xml version="1.0" encoding="UTF-8" standalone="no"?>
<!DOCTYPE svg PUBLIC "-//W3C//DTD SVG 1.1//EN" "http://www.w3.org/Graphics/SVG/1.1/DTD/svg11.dtd">
<svg width="100%" height="100%" viewBox="0 0 5416 758" version="1.1" xmlns="http://www.w3.org/2000/svg" xmlns:xlink="http://www.w3.org/1999/xlink" xml:space="preserve" xmlns:serif="http://www.serif.com/" style="fill-rule:evenodd;clip-rule:evenodd;stroke-linejoin:round;stroke-miterlimit:2;">
    <g>
        <path d="M1223,196.73C1223,91.945 1308.02,7 1412.9,7L1942.61,7C1942.61,111.785 1857.59,196.73 1752.71,196.73L1223,196.73Z" style="fill:rgb(58,46,43);fill-rule:nonzero;"/>
        <path d="M1412.9,710C1308.02,710 1223,625.055 1223,520.27L1223,476.998L1412.9,476.998L1412.9,710Z" style="fill:rgb(58,46,43);fill-rule:nonzero;"/>
        <path d="M1223,431.729C1223,326.944 1308.02,241.999 1412.9,241.999L1942.61,241.999C1942.61,346.784 1857.59,431.729 1752.71,431.729L1223,431.729Z" style="fill:rgb(58,46,43);fill-rule:nonzero;"/>
    </g>
    <g>
        <path d="M4694.39,195.886C4694.39,87.701 4779.41,0 4884.29,0L5414,0C5414,108.185 5328.98,195.886 5224.1,195.886L4694.39,195.886Z" style="fill:rgb(58,46,43);fill-rule:nonzero;"/>
        <path d="M4694.39,485.247L5414,485.247C5414,593.432 5328.98,681.133 5224.1,681.133L4884.29,681.133C4779.41,681.133 4694.39,593.432 4694.39,485.247Z" style="fill:rgb(58,46,43);fill-rule:nonzero;"/>
        <path d="M4884.29,681.133C4779.41,681.133 4694.39,593.432 4694.39,485.247L4694.39,195.886C4694.39,87.701 4779.41,0 4884.29,0L4884.29,681.133Z" style="fill:rgb(58,46,43);fill-rule:nonzero;"/>
        <path d="M3834.2,195.886C3834.2,87.701 3919.22,0 4024.09,0L4553.8,0C4553.8,108.185 4468.78,195.886 4363.91,195.886L3834.2,195.886Z" style="fill:rgb(58,46,43);fill-rule:nonzero;"/>
        <path d="M3834.2,242.623L4153.02,242.623C4205.46,242.623 4247.97,286.474 4247.97,340.566C4247.97,394.659 4205.46,438.509 4153.02,438.509L3834.2,438.509L3834.2,242.623Z" style="fill:rgb(58,46,43);fill-rule:nonzero;"/>
        <path d="M3834.2,485.247L4553.8,485.247C4553.8,593.432 4468.78,681.133 4363.91,681.133L4024.09,681.133C3919.22,681.133 3834.2,593.432 3834.2,485.247Z" style="fill:rgb(58,46,43);fill-rule:nonzero;"/>
        <path d="M2974,195.886C2974,87.701 3059.02,0 3163.9,0L3693.61,0C3693.61,108.185 3608.59,195.886 3503.71,195.886L2974,195.886Z" style="fill:rgb(58,46,43);fill-rule:nonzero;"/>
        <path d="M3429.08,242.623L3429.08,710C3324.21,710 3239.19,622.299 3239.19,514.114L3239.19,242.623L3429.08,242.623Z" style="fill:rgb(58,46,43);fill-rule:nonzero;"/>
    </g>
    <path d="M0,194.925C0,91.137 84.137,7 187.924,7L187.924,709.717C84.137,709.717 0,625.581 0,521.793L0,194.925Z" style="fill:rgb(58,46,43);fill-rule:nonzero;"/>
    <path d="M343,107.962C343,56.068 385.068,14 436.962,14L460.924,14C499.584,14 530.924,45.34 530.924,84L530.924,716.717C427.137,716.717 343,632.581 343,528.793L343,107.962Z" style="fill:rgb(58,46,43);fill-rule:nonzero;"/>
    <path d="M1043.93,14C940.138,14 856.001,98.137 856.001,201.924L856.001,665.366C856.001,693.727 878.992,716.717 907.353,716.717C982.78,716.717 1043.93,655.572 1043.93,580.144L1043.93,14Z" style="fill:rgb(58,46,43);fill-rule:nonzero;"/>
    <g>
        <path d="M2094.64,510.799L2821.34,510.799C2821.34,624.681 2735.48,717 2629.57,717L2286.41,717C2180.5,717 2094.64,624.681 2094.64,510.799Z" style="fill:rgb(58,46,43);fill-rule:nonzero;"/>
    </g>
    <rect x="2094.45" y="203.992" width="252.46" height="306.997" style="fill:rgb(58,46,43);fill-rule:nonzero;"/>
    <rect x="2570.09" y="203.992" width="252.46" height="306.997" style="fill:rgb(58,46,43);fill-rule:nonzero;"/>
    <path d="M2094.45,204.321C2094.45,91.478 2185.92,0 2298.77,0L2617.22,0C2730.07,0 2821.54,91.478 2821.54,204.321L2094.45,204.321Z" style="fill:rgb(58,46,43);fill-rule:nonzero;"/>
    <path d="M510.992,34.528L1010.19,533.725C1042.21,565.748 1042.21,617.667 1010.19,649.69L969.883,689.995C932.783,727.095 872.633,727.095 835.533,689.995L345.529,199.991L510.992,34.528Z" style="fill:rgb(58,46,43);fill-rule:nonzero;"/>
</svg>
